<svg xmlns="http://www.w3.org/2000/svg" xmlns:xlink="http://www.w3.org/1999/xlink" width="40" height="40" viewBox="0 0 40 40" version="1.1">
    <!-- Generator: Sketch 55.2 (78181) - https://sketchapp.com -->
    <title>40x40_claim_your_page_v2</title>
    <desc>Created with Sketch.</desc>
    <g id="Homepage---Mobile" stroke="none" stroke-width="1" fill="none" fill-rule="evenodd">
        <g id="Recommendations" transform="translate(-2750.000000, -922.000000)">
            <g id="Group-Copy-22" transform="translate(2723.000000, 896.000000)">
                <g id="Group-3" transform="translate(0.000000, 2.000000)">
                    <g id="40x40_claim_your_page_v2" transform="translate(25.000000, 22.000000)">
                        <path d="M29,23.08 C29.3308346,23.0281168 29.6651246,23.0013736 30,23 C31.8825912,23.0023634 33.684876,23.7629276 35,25.11 L35,3 C35,2.44771525 34.5522847,2 34,2 L8,2 C7.44771525,2 7,2.44771525 7,3 L7,7 L29,7 L29,23.08 Z" id="Path" fill="#E9E9E9" fill-rule="nonzero"/>
                        <path d="M20.36,32 L4,32 L4,29 L20.15,29 C20.2041236,28.321574 20.3315325,27.6510007 20.53,27 L19,27 L19,22 C19,21.4477153 18.5522847,21 18,21 L14,21 C13.4477153,21 13,21.4477153 13,22 L13,27 L9,27 L9,12 L23,12 L23,22.91 C23.5992055,22.3202172 24.2713145,21.8094144 25,21.39 L25,11 C25,10.4477153 24.5522847,10 24,10 L8,10 C7.44771525,10 7,10.4477153 7,11 L7,27 L4,27 L4,8 L28,8 L28,20.26 C28.6125399,20.1387608 29.2355789,20.0784668 29.86,20.08 L30,20.08 L30,7 C30,6.44771525 29.5522847,6 29,6 L3,6 C2.44771525,6 2,6.44771525 2,7 L2,33 C2,33.5522847 2.44771525,34 3,34 L21.06,34 C20.7541081,33.3609882 20.5193659,32.6902959 20.36,32 Z M15,23 L17,23 L17,27 L15,27 L15,23 Z" id="Shape" fill="#2B273D" fill-rule="nonzero"/>
                        <path d="M29.86,38.08 C26.5231865,38.08 23.5149371,36.069952 22.2379939,32.9871383 C20.9610506,29.9043246 21.6668856,26.3558525 24.0263691,23.9963691 C26.3858525,21.6368856 29.9343246,20.9310506 33.0171383,22.2079939 C36.099952,23.4849371 38.11,26.4931865 38.11,29.83 C38.1044899,34.3840649 34.4140649,38.0744899 29.86,38.08 L29.86,38.08 Z M29.86,23.58 C26.4082203,23.58 23.61,26.3782203 23.61,29.83 C23.61,33.2817797 26.4082203,36.08 29.86,36.08 C33.3117797,36.08 36.11,33.2817797 36.11,29.83 C36.11,26.3782203 33.3117797,23.58 29.86,23.58 L29.86,23.58 Z" id="Shape" fill="#2B273D" fill-rule="nonzero"/>
                        <path d="M28.88,32.5600167 C28.614197,32.5615368 28.3587188,32.4571865 28.17,32.27 L26.65,30.75 C26.2578779,30.3578778 26.2578779,29.7221222 26.65,29.33 C27.0421222,28.9378779 27.6778778,28.9378779 28.07,29.33 L28.88,30.15 L31.65,27.38 C31.8377666,27.1906873 32.0933625,27.0842017 32.36,27.0842017 C32.6266375,27.0842017 32.8822334,27.1906873 33.07,27.38 C33.4577236,27.7700375 33.4577236,28.3999625 33.07,28.79 L29.59,32.27 C29.4012812,32.4571865 29.145803,32.5615368 28.88,32.5600167 Z" id="Path" fill="#EF3B3A" fill-rule="nonzero"/>
                        <rect id="Rectangle" x="0" y="0" width="40" height="40"/>
                        <path d="M27,19.31 L25,14.31 C24.9208089,14.1069803 24.7170575,13.9806545 24.5,14 L7.5,14 C7.29730672,13.9982412 7.11445393,14.1214681 7.04,14.31 L5.04,19.31 C4.95604259,19.4554185 4.95604259,19.6345815 5.04,19.78 C5.1384857,19.9354464 5.31717221,20.0209052 5.5,20 L26.5,20 C26.6654507,20.0022362 26.8203878,19.9190992 26.91,19.78 C27.0234811,19.6514763 27.0579724,19.4713552 27,19.31 Z" id="Path" fill="#EF3B3A" fill-rule="nonzero"/>
                    </g>
                </g>
            </g>
        </g>
    </g>
</svg>