<svg xmlns:xlink="http://www.w3.org/1999/xlink" xmlns="http://www.w3.org/2000/svg" width="24" height="24" viewBox="0 0 22 22" class="icon_svg"><path d="M11 22a3 3 0 01-2.12-.88l-8-8a3 3 0 010-4.24l8-8a3 3 0 014.24 0l8 8a3 3 0 010 4.24l-8 8A3 3 0 0111 22zm0-20a1 1 0 00-.71.29l-8 8a1 1 0 000 1.42l8 8a1 1 0 001.42 0l8-8a1 1 0 000-1.42l-8-8A1 1 0 0011 2zm4.85 8.15a.48.48 0 010 .66l-3 3a.47.47 0 01-.35.15.43.43 0 01-.19 0 .5.5 0 01-.31-.46v-2.05a1 1 0 01-.25.05h-2a1 1 0 00-1 1v1a1 1 0 11-2 0v-1a3 3 0 013-3h2a1 1 0 01.25.05V7.5a.5.5 0 01.31-.5.47.47 0 01.54.15l3 3z" fill="#2D2E2F"></path></svg>