<svg xmlns:xlink="http://www.w3.org/1999/xlink" xmlns="http://www.w3.org/2000/svg" width="24" height="24" class="icon_svg"><path d="M13.59 23.07A7 7 0 018.64 21L3 15.36a7 7 0 010-9.9l1.39-1.41a1 1 0 011.42 0l5 5a1 1 0 010 1.41 2.001 2.001 0 002.83 2.83 1 1 0 011.41 0l4.95 5a1 1 0 010 1.42L18.54 21a7 7 0 01-4.95 2.07zM5.1 6.17l-.71.71a5 5 0 000 7.07l5.66 5.66a5 5 0 007.07 0l.71-.71-3.63-3.63a4 4 0 01-4.86-.61 4 4 0 01-.61-4.86L5.1 6.17zm12.78 5.95a1 1 0 01-1-1 4 4 0 00-4-4 1 1 0 010-2 6 6 0 016 6 1 1 0 01-1 1zm4.19 0a1 1 0 01-1-1 8.19 8.19 0 00-8.19-8.19 1 1 0 010-2c5.625.006 10.184 4.565 10.19 10.19a1 1 0 01-1 1z" fill="#2D2E2F"></path></svg>