<svg xmlns:xlink="http://www.w3.org/1999/xlink" xmlns="http://www.w3.org/2000/svg" width="24" height="24" class="icon_svg"><path d="M17.87 22a.93.93 0 01-.46-.12L12 19.08l-5.41 2.84a1 1 0 01-1-.08 1 1 0 01-.4-1l1-6-4.39-4.26a1 1 0 01.56-1.7L8.4 8l2.7-5.48a1 1 0 011.8 0L15.6 8l6 .88a1 1 0 01.56 1.7l-4.38 4.27 1 6a1 1 0 01-1 1.17l.09-.02zM12 17c.163.002.323.04.47.11l4.07 2.15-.78-4.54a1 1 0 01.29-.89l3.3-3.21-4.56-.72a1 1 0 01-.79-.54l-2-4.14-2 4.14a1 1 0 01-.75.54l-4.56.67L8 13.78a1 1 0 01.29.89l-.78 4.54 4.07-2.15A1.12 1.12 0 0112 17z" fill="#FFFFFF"></path></svg>